<mxfile host="app.diagrams.net" modified="2024-05-05T19:28:54.053Z" agent="Mozilla/5.0 (Windows NT 10.0; Win64; x64) AppleWebKit/537.36 (KHTML, like Gecko) Chrome/124.0.0.0 Safari/537.36" etag="Dl3NM4_Jz2POKmj41JAN" version="24.3.1" type="device">
  <diagram name="Page-1" id="13e1069c-82ec-6db2-03f1-153e76fe0fe0">
    <mxGraphModel dx="4600" dy="1767" grid="1" gridSize="10" guides="1" tooltips="1" connect="1" arrows="1" fold="1" page="1" pageScale="1" pageWidth="1100" pageHeight="850" background="none" math="0" shadow="0">
      <root>
        <mxCell id="0" />
        <mxCell id="1" parent="0" />
        <mxCell id="Jcw7EJioxbvd80uUM6-t-82" value="" style="" vertex="1" parent="1">
          <mxGeometry x="-180" y="1210" width="695" height="130" as="geometry" />
        </mxCell>
        <mxCell id="Jcw7EJioxbvd80uUM6-t-72" value="" style="" vertex="1" parent="1">
          <mxGeometry x="35" y="1080" width="480" height="110" as="geometry" />
        </mxCell>
        <mxCell id="Jcw7EJioxbvd80uUM6-t-39" value="" style="" vertex="1" parent="1">
          <mxGeometry x="35" y="730" width="1085" height="320" as="geometry" />
        </mxCell>
        <mxCell id="Jcw7EJioxbvd80uUM6-t-27" value="" style="" vertex="1" parent="1">
          <mxGeometry x="35" y="480" width="919" height="220" as="geometry" />
        </mxCell>
        <mxCell id="7baba1c4bc27f4b0-3" value="Account" style="shape=umlLifeline;perimeter=lifelinePerimeter;whiteSpace=wrap;html=1;container=1;collapsible=0;recursiveResize=0;outlineConnect=0;rounded=1;shadow=0;comic=0;labelBackgroundColor=none;strokeWidth=1;fontFamily=Verdana;fontSize=12;align=center;" parent="1" vertex="1">
          <mxGeometry x="425" y="80" width="100" height="120" as="geometry" />
        </mxCell>
        <mxCell id="Jcw7EJioxbvd80uUM6-t-10" value="" style="" vertex="1" parent="7baba1c4bc27f4b0-3">
          <mxGeometry x="-390" y="150" width="700" height="220" as="geometry" />
        </mxCell>
        <mxCell id="Jcw7EJioxbvd80uUM6-t-17" value="DoWithdraw()" style="html=1;verticalAlign=bottom;endArrow=block;labelBackgroundColor=none;fontFamily=Verdana;fontSize=12;elbow=vertical;edgeStyle=orthogonalEdgeStyle;curved=1;exitX=1.038;exitY=0.345;exitPerimeter=0;" edge="1" parent="7baba1c4bc27f4b0-3">
          <mxGeometry x="-0.0853" y="20" relative="1" as="geometry">
            <mxPoint x="-270.9966666666665" y="164.04000000000002" as="sourcePoint" />
            <mxPoint x="-271" y="187.36999999999995" as="targetPoint" />
            <Array as="points">
              <mxPoint x="-216" y="164.36999999999995" />
              <mxPoint x="-216" y="187.36999999999995" />
              <mxPoint x="-266" y="187.36999999999995" />
            </Array>
            <mxPoint as="offset" />
          </mxGeometry>
        </mxCell>
        <mxCell id="Jcw7EJioxbvd80uUM6-t-18" value="FindAccount()" style="html=1;verticalAlign=bottom;endArrow=block;labelBackgroundColor=none;fontFamily=Verdana;fontSize=12;elbow=vertical;edgeStyle=orthogonalEdgeStyle;curved=1;exitX=1.038;exitY=0.345;exitPerimeter=0;" edge="1" parent="7baba1c4bc27f4b0-3">
          <mxGeometry x="-0.0853" y="20" relative="1" as="geometry">
            <mxPoint x="-269.9966666666665" y="198.04000000000002" as="sourcePoint" />
            <mxPoint x="-270" y="221.36999999999995" as="targetPoint" />
            <Array as="points">
              <mxPoint x="-215" y="198.36999999999995" />
              <mxPoint x="-215" y="221.36999999999995" />
              <mxPoint x="-265" y="221.36999999999995" />
            </Array>
            <mxPoint as="offset" />
          </mxGeometry>
        </mxCell>
        <mxCell id="Jcw7EJioxbvd80uUM6-t-19" value="" style="html=1;points=[];perimeter=orthogonalPerimeter;rounded=0;shadow=0;comic=0;labelBackgroundColor=none;strokeWidth=1;fontFamily=Verdana;fontSize=12;align=center;" vertex="1" parent="7baba1c4bc27f4b0-3">
          <mxGeometry x="45" y="220" width="10" height="145" as="geometry" />
        </mxCell>
        <mxCell id="Jcw7EJioxbvd80uUM6-t-20" value="Print()" style="html=1;verticalAlign=bottom;endArrow=block;labelBackgroundColor=none;fontFamily=Verdana;fontSize=12;elbow=vertical;edgeStyle=orthogonalEdgeStyle;curved=1;exitX=1.038;exitY=0.345;exitPerimeter=0;" edge="1" parent="7baba1c4bc27f4b0-3">
          <mxGeometry x="0.6094" relative="1" as="geometry">
            <mxPoint x="250.00333333333356" y="339" as="sourcePoint" />
            <mxPoint x="250" y="357" as="targetPoint" />
            <Array as="points">
              <mxPoint x="305" y="339" />
              <mxPoint x="305" y="357" />
            </Array>
            <mxPoint as="offset" />
          </mxGeometry>
        </mxCell>
        <mxCell id="Jcw7EJioxbvd80uUM6-t-12" value="Withdraw()" style="html=1;verticalAlign=bottom;endArrow=block;labelBackgroundColor=none;fontFamily=Verdana;fontSize=12;edgeStyle=elbowEdgeStyle;elbow=vertical;exitX=1;exitY=0.318;exitDx=0;exitDy=0;exitPerimeter=0;" edge="1" parent="7baba1c4bc27f4b0-3">
          <mxGeometry relative="1" as="geometry">
            <mxPoint x="-275" y="240" as="sourcePoint" />
            <Array as="points" />
            <mxPoint x="45" y="240" as="targetPoint" />
            <mxPoint x="1" y="1" as="offset" />
          </mxGeometry>
        </mxCell>
        <mxCell id="Jcw7EJioxbvd80uUM6-t-21" value="" style="endArrow=none;dashed=1;html=1;rounded=0;exitX=0.567;exitY=0.008;exitDx=0;exitDy=0;exitPerimeter=0;" edge="1" parent="7baba1c4bc27f4b0-3" source="Jcw7EJioxbvd80uUM6-t-19" target="7baba1c4bc27f4b0-3">
          <mxGeometry width="50" height="50" relative="1" as="geometry">
            <mxPoint x="117.25" y="133.88888888888903" as="sourcePoint" />
            <mxPoint x="-17.25" y="133.88888888888903" as="targetPoint" />
          </mxGeometry>
        </mxCell>
        <mxCell id="7baba1c4bc27f4b0-40" value="This is the interface to which user interacts" style="shape=note;whiteSpace=wrap;html=1;size=14;verticalAlign=top;align=left;spacingTop=-6;rounded=0;shadow=0;comic=0;labelBackgroundColor=none;strokeWidth=1;fontFamily=Verdana;fontSize=12" parent="1" vertex="1">
          <mxGeometry x="60" y="20" width="160" height="50" as="geometry" />
        </mxCell>
        <mxCell id="7baba1c4bc27f4b0-41" value="This is the Bank class where most of option executes" style="shape=note;whiteSpace=wrap;html=1;size=14;verticalAlign=top;align=left;spacingTop=-6;rounded=0;shadow=0;comic=0;labelBackgroundColor=none;strokeWidth=1;fontFamily=Verdana;fontSize=12" parent="1" vertex="1">
          <mxGeometry x="240" y="20" width="150" height="50" as="geometry" />
        </mxCell>
        <mxCell id="7baba1c4bc27f4b0-42" value="This class contains all users accounts in Bank" style="shape=note;whiteSpace=wrap;html=1;size=14;verticalAlign=top;align=left;spacingTop=-6;rounded=0;shadow=0;comic=0;labelBackgroundColor=none;strokeWidth=1;fontFamily=Verdana;fontSize=12" parent="1" vertex="1">
          <mxGeometry x="400" y="20" width="150" height="50" as="geometry" />
        </mxCell>
        <mxCell id="7baba1c4bc27f4b0-43" value="This Class performs all the transactions" style="shape=note;whiteSpace=wrap;html=1;size=14;verticalAlign=top;align=left;spacingTop=-6;rounded=0;shadow=0;comic=0;labelBackgroundColor=none;strokeWidth=1;fontFamily=Verdana;fontSize=12" parent="1" vertex="1">
          <mxGeometry x="595" y="20" width="150" height="50" as="geometry" />
        </mxCell>
        <mxCell id="7baba1c4bc27f4b0-44" value="This Class Checks on Deposits" style="shape=note;whiteSpace=wrap;html=1;size=14;verticalAlign=top;align=left;spacingTop=-6;rounded=0;shadow=0;comic=0;labelBackgroundColor=none;strokeWidth=1;fontFamily=Verdana;fontSize=12" parent="1" vertex="1">
          <mxGeometry x="815" y="20" width="150" height="50" as="geometry" />
        </mxCell>
        <mxCell id="7baba1c4bc27f4b0-45" value="This class help in transferring transaction" style="shape=note;whiteSpace=wrap;html=1;size=14;verticalAlign=top;align=left;spacingTop=-6;rounded=0;shadow=0;comic=0;labelBackgroundColor=none;strokeWidth=1;fontFamily=Verdana;fontSize=12" parent="1" vertex="1">
          <mxGeometry x="980" y="20" width="150" height="50" as="geometry" />
        </mxCell>
        <mxCell id="Jcw7EJioxbvd80uUM6-t-2" value="User" style="shape=umlActor;verticalLabelPosition=bottom;verticalAlign=top;html=1;outlineConnect=0;" vertex="1" parent="1">
          <mxGeometry x="-60" y="40" width="30" height="60" as="geometry" />
        </mxCell>
        <mxCell id="Jcw7EJioxbvd80uUM6-t-5" value="" style="endArrow=none;dashed=1;html=1;rounded=0;" edge="1" parent="1">
          <mxGeometry width="50" height="50" relative="1" as="geometry">
            <mxPoint x="-45" y="661.4545232599431" as="sourcePoint" />
            <mxPoint x="-45" y="120" as="targetPoint" />
          </mxGeometry>
        </mxCell>
        <mxCell id="Jcw7EJioxbvd80uUM6-t-1" value="" style="html=1;points=[];perimeter=orthogonalPerimeter;rounded=0;shadow=0;comic=0;labelBackgroundColor=none;strokeWidth=1;fontFamily=Verdana;fontSize=12;align=center;" vertex="1" parent="1">
          <mxGeometry x="-50" y="180" width="10" height="1220" as="geometry" />
        </mxCell>
        <mxCell id="Jcw7EJioxbvd80uUM6-t-6" value="Starts the Program" style="html=1;verticalAlign=bottom;endArrow=block;labelBackgroundColor=none;fontFamily=Verdana;fontSize=12;edgeStyle=elbowEdgeStyle;elbow=vertical;exitX=1.335;exitY=0.023;exitDx=0;exitDy=0;exitPerimeter=0;" edge="1" parent="1">
          <mxGeometry relative="1" as="geometry">
            <mxPoint x="-36.65000000000009" y="198.40999999999997" as="sourcePoint" />
            <mxPoint x="144.99999999999977" y="198.39393939393938" as="targetPoint" />
          </mxGeometry>
        </mxCell>
        <mxCell id="Jcw7EJioxbvd80uUM6-t-7" value="User Chooses Option" style="html=1;verticalAlign=bottom;endArrow=block;labelBackgroundColor=none;fontFamily=Verdana;fontSize=12;edgeStyle=elbowEdgeStyle;elbow=vertical;exitX=1.335;exitY=0.023;exitDx=0;exitDy=0;exitPerimeter=0;" edge="1" parent="1">
          <mxGeometry relative="1" as="geometry">
            <mxPoint x="-40" y="220.13" as="sourcePoint" />
            <mxPoint x="142" y="220.13" as="targetPoint" />
          </mxGeometry>
        </mxCell>
        <mxCell id="Jcw7EJioxbvd80uUM6-t-14" value="Withdraw()" style="html=1;verticalAlign=bottom;endArrow=block;labelBackgroundColor=none;fontFamily=Verdana;fontSize=12;edgeStyle=elbowEdgeStyle;elbow=vertical;exitX=1;exitY=0.318;exitDx=0;exitDy=0;exitPerimeter=0;" edge="1" parent="1">
          <mxGeometry x="-0.081" relative="1" as="geometry">
            <mxPoint x="665" y="382" as="sourcePoint" />
            <Array as="points" />
            <mxPoint x="479.99999999999955" y="382" as="targetPoint" />
            <mxPoint as="offset" />
          </mxGeometry>
        </mxCell>
        <mxCell id="Jcw7EJioxbvd80uUM6-t-15" value="opt==withdraw" style="rounded=1;fontStyle=1;fillColor=#D45EFF;strokeColor=none" vertex="1" parent="1">
          <mxGeometry x="39" y="242" width="87.5" height="30" as="geometry" />
        </mxCell>
        <mxCell id="Jcw7EJioxbvd80uUM6-t-28" value="opt==deposit" style="rounded=1;fontStyle=1;fillColor=#D45EFF;strokeColor=none" vertex="1" parent="1">
          <mxGeometry x="39" y="494" width="87.5" height="30" as="geometry" />
        </mxCell>
        <mxCell id="Jcw7EJioxbvd80uUM6-t-29" value="DoDeposit()" style="html=1;verticalAlign=bottom;endArrow=block;labelBackgroundColor=none;fontFamily=Verdana;fontSize=12;elbow=vertical;edgeStyle=orthogonalEdgeStyle;curved=1;exitX=1.038;exitY=0.345;exitPerimeter=0;" edge="1" parent="1">
          <mxGeometry x="-0.0853" y="20" relative="1" as="geometry">
            <mxPoint x="155.0033333333335" y="494.04" as="sourcePoint" />
            <mxPoint x="155" y="517.3699999999999" as="targetPoint" />
            <Array as="points">
              <mxPoint x="210" y="494.36999999999995" />
              <mxPoint x="210" y="517.3699999999999" />
              <mxPoint x="160" y="517.3699999999999" />
            </Array>
            <mxPoint as="offset" />
          </mxGeometry>
        </mxCell>
        <mxCell id="Jcw7EJioxbvd80uUM6-t-30" value="FindAccount()" style="html=1;verticalAlign=bottom;endArrow=block;labelBackgroundColor=none;fontFamily=Verdana;fontSize=12;elbow=vertical;edgeStyle=orthogonalEdgeStyle;curved=1;exitX=1.038;exitY=0.345;exitPerimeter=0;" edge="1" parent="1">
          <mxGeometry x="-0.0853" y="20" relative="1" as="geometry">
            <mxPoint x="155.0033333333335" y="528.04" as="sourcePoint" />
            <mxPoint x="155" y="551.3699999999999" as="targetPoint" />
            <Array as="points">
              <mxPoint x="210" y="528.3699999999999" />
              <mxPoint x="210" y="551.3699999999999" />
              <mxPoint x="160" y="551.3699999999999" />
            </Array>
            <mxPoint as="offset" />
          </mxGeometry>
        </mxCell>
        <mxCell id="Jcw7EJioxbvd80uUM6-t-31" value="Deposit()" style="html=1;verticalAlign=bottom;endArrow=block;labelBackgroundColor=none;fontFamily=Verdana;fontSize=12;edgeStyle=elbowEdgeStyle;elbow=vertical;exitX=1;exitY=0.318;exitDx=0;exitDy=0;exitPerimeter=0;" edge="1" parent="1">
          <mxGeometry x="-0.0158" relative="1" as="geometry">
            <mxPoint x="155" y="570" as="sourcePoint" />
            <Array as="points" />
            <mxPoint x="470" y="570" as="targetPoint" />
            <mxPoint x="1" y="1" as="offset" />
          </mxGeometry>
        </mxCell>
        <mxCell id="Jcw7EJioxbvd80uUM6-t-33" value="Deposit successful." style="html=1;verticalAlign=bottom;endArrow=open;dashed=1;endSize=8;labelBackgroundColor=none;fontFamily=Verdana;fontSize=12;" edge="1" parent="1">
          <mxGeometry x="0.0143" relative="1" as="geometry">
            <mxPoint x="154.5" y="590.44" as="targetPoint" />
            <mxPoint x="470" y="590" as="sourcePoint" />
            <mxPoint as="offset" />
          </mxGeometry>
        </mxCell>
        <mxCell id="Jcw7EJioxbvd80uUM6-t-34" value="Execute&lt;span style=&quot;background-color: initial;&quot;&gt;()&lt;/span&gt;" style="html=1;verticalAlign=bottom;endArrow=block;labelBackgroundColor=none;fontFamily=Verdana;fontSize=12;edgeStyle=elbowEdgeStyle;elbow=vertical;exitX=1;exitY=0.318;exitDx=0;exitDy=0;exitPerimeter=0;" edge="1" parent="1">
          <mxGeometry x="-0.5746" y="1" relative="1" as="geometry">
            <mxPoint x="155" y="614" as="sourcePoint" />
            <Array as="points" />
            <mxPoint x="885" y="614" as="targetPoint" />
            <mxPoint x="1" as="offset" />
          </mxGeometry>
        </mxCell>
        <mxCell id="Jcw7EJioxbvd80uUM6-t-36" value="Deposit()" style="html=1;verticalAlign=bottom;endArrow=block;labelBackgroundColor=none;fontFamily=Verdana;fontSize=12;edgeStyle=elbowEdgeStyle;elbow=vertical;exitX=1;exitY=0.318;exitDx=0;exitDy=0;exitPerimeter=0;" edge="1" parent="1">
          <mxGeometry x="-0.081" relative="1" as="geometry">
            <mxPoint x="885" y="632" as="sourcePoint" />
            <Array as="points" />
            <mxPoint x="479.99999999999955" y="632" as="targetPoint" />
            <mxPoint as="offset" />
          </mxGeometry>
        </mxCell>
        <mxCell id="Jcw7EJioxbvd80uUM6-t-37" value="Deposit successful." style="html=1;verticalAlign=bottom;endArrow=open;dashed=1;endSize=8;labelBackgroundColor=none;fontFamily=Verdana;fontSize=12;" edge="1" parent="1">
          <mxGeometry relative="1" as="geometry">
            <mxPoint x="885" y="655.44" as="targetPoint" />
            <mxPoint x="480" y="655" as="sourcePoint" />
          </mxGeometry>
        </mxCell>
        <mxCell id="Jcw7EJioxbvd80uUM6-t-38" value="Print()" style="html=1;verticalAlign=bottom;endArrow=block;labelBackgroundColor=none;fontFamily=Verdana;fontSize=12;elbow=vertical;edgeStyle=orthogonalEdgeStyle;curved=1;exitX=1.038;exitY=0.345;exitPerimeter=0;" edge="1" parent="1">
          <mxGeometry x="0.6094" relative="1" as="geometry">
            <mxPoint x="895.0033333333336" y="669" as="sourcePoint" />
            <mxPoint x="895" y="687" as="targetPoint" />
            <Array as="points">
              <mxPoint x="950" y="669" />
              <mxPoint x="950" y="687" />
            </Array>
            <mxPoint as="offset" />
          </mxGeometry>
        </mxCell>
        <mxCell id="Jcw7EJioxbvd80uUM6-t-40" value="DoTransfer()" style="html=1;verticalAlign=bottom;endArrow=block;labelBackgroundColor=none;fontFamily=Verdana;fontSize=12;elbow=vertical;edgeStyle=orthogonalEdgeStyle;curved=1;exitX=1.038;exitY=0.345;exitPerimeter=0;" edge="1" parent="1">
          <mxGeometry x="-0.0853" y="20" relative="1" as="geometry">
            <mxPoint x="155.0033333333335" y="744.04" as="sourcePoint" />
            <mxPoint x="155" y="767.3699999999999" as="targetPoint" />
            <Array as="points">
              <mxPoint x="210" y="744.3699999999999" />
              <mxPoint x="210" y="767.3699999999999" />
              <mxPoint x="160" y="767.3699999999999" />
            </Array>
            <mxPoint as="offset" />
          </mxGeometry>
        </mxCell>
        <mxCell id="Jcw7EJioxbvd80uUM6-t-41" value="FindAccount()" style="html=1;verticalAlign=bottom;endArrow=block;labelBackgroundColor=none;fontFamily=Verdana;fontSize=12;elbow=vertical;edgeStyle=orthogonalEdgeStyle;curved=1;exitX=1.038;exitY=0.345;exitPerimeter=0;" edge="1" parent="1">
          <mxGeometry x="-0.0853" y="20" relative="1" as="geometry">
            <mxPoint x="155.0033333333335" y="778.04" as="sourcePoint" />
            <mxPoint x="155" y="801.3699999999999" as="targetPoint" />
            <Array as="points">
              <mxPoint x="210" y="778.3699999999999" />
              <mxPoint x="210" y="801.3699999999999" />
              <mxPoint x="160" y="801.3699999999999" />
            </Array>
            <mxPoint as="offset" />
          </mxGeometry>
        </mxCell>
        <mxCell id="Jcw7EJioxbvd80uUM6-t-42" value="Deposit()" style="html=1;verticalAlign=bottom;endArrow=block;labelBackgroundColor=none;fontFamily=Verdana;fontSize=12;edgeStyle=elbowEdgeStyle;elbow=vertical;exitX=1;exitY=0.318;exitDx=0;exitDy=0;exitPerimeter=0;" edge="1" parent="1">
          <mxGeometry x="-0.0158" relative="1" as="geometry">
            <mxPoint x="155" y="930" as="sourcePoint" />
            <Array as="points" />
            <mxPoint x="470" y="930" as="targetPoint" />
            <mxPoint x="1" y="1" as="offset" />
          </mxGeometry>
        </mxCell>
        <mxCell id="Jcw7EJioxbvd80uUM6-t-44" value="Deposit successful." style="html=1;verticalAlign=bottom;endArrow=open;dashed=1;endSize=8;labelBackgroundColor=none;fontFamily=Verdana;fontSize=12;" edge="1" parent="1">
          <mxGeometry x="0.0143" relative="1" as="geometry">
            <mxPoint x="154.5" y="950.44" as="targetPoint" />
            <mxPoint x="470" y="950" as="sourcePoint" />
            <mxPoint as="offset" />
          </mxGeometry>
        </mxCell>
        <mxCell id="Jcw7EJioxbvd80uUM6-t-45" value="Execute&lt;span style=&quot;background-color: initial;&quot;&gt;()&lt;/span&gt;" style="html=1;verticalAlign=bottom;endArrow=block;labelBackgroundColor=none;fontFamily=Verdana;fontSize=12;edgeStyle=elbowEdgeStyle;elbow=vertical;exitX=1;exitY=0.318;exitDx=0;exitDy=0;exitPerimeter=0;" edge="1" parent="1">
          <mxGeometry relative="1" as="geometry">
            <mxPoint x="155" y="850" as="sourcePoint" />
            <Array as="points" />
            <mxPoint x="1050" y="850" as="targetPoint" />
            <mxPoint as="offset" />
          </mxGeometry>
        </mxCell>
        <mxCell id="Jcw7EJioxbvd80uUM6-t-46" value="FindAccount()" style="html=1;verticalAlign=bottom;endArrow=block;labelBackgroundColor=none;fontFamily=Verdana;fontSize=12;elbow=vertical;edgeStyle=orthogonalEdgeStyle;curved=1;exitX=1.038;exitY=0.345;exitPerimeter=0;" edge="1" parent="1">
          <mxGeometry x="-0.0853" y="20" relative="1" as="geometry">
            <mxPoint x="155.0033333333335" y="813.04" as="sourcePoint" />
            <mxPoint x="155" y="836.3699999999999" as="targetPoint" />
            <Array as="points">
              <mxPoint x="210" y="813.3699999999999" />
              <mxPoint x="210" y="836.3699999999999" />
              <mxPoint x="160" y="836.3699999999999" />
            </Array>
            <mxPoint as="offset" />
          </mxGeometry>
        </mxCell>
        <mxCell id="Jcw7EJioxbvd80uUM6-t-47" value="opt==transfer" style="rounded=1;fontStyle=1;fillColor=#D45EFF;strokeColor=none" vertex="1" parent="1">
          <mxGeometry x="39" y="742" width="87.5" height="30" as="geometry" />
        </mxCell>
        <mxCell id="Jcw7EJioxbvd80uUM6-t-50" value="Execute&lt;span style=&quot;background-color: initial;&quot;&gt;()&lt;/span&gt;" style="html=1;verticalAlign=bottom;endArrow=block;labelBackgroundColor=none;fontFamily=Verdana;fontSize=12;edgeStyle=elbowEdgeStyle;elbow=vertical;exitX=1;exitY=0.318;exitDx=0;exitDy=0;exitPerimeter=0;" edge="1" parent="1">
          <mxGeometry relative="1" as="geometry">
            <mxPoint x="1050" y="884" as="sourcePoint" />
            <Array as="points" />
            <mxPoint x="675" y="884" as="targetPoint" />
            <mxPoint as="offset" />
          </mxGeometry>
        </mxCell>
        <mxCell id="Jcw7EJioxbvd80uUM6-t-52" value="" style="edgeStyle=orthogonalEdgeStyle;rounded=0;orthogonalLoop=1;jettySize=auto;html=1;dashed=1;endArrow=none;endFill=0;" edge="1" parent="1" source="Jcw7EJioxbvd80uUM6-t-19">
          <mxGeometry relative="1" as="geometry">
            <mxPoint x="475" y="445" as="sourcePoint" />
            <mxPoint x="475" y="859" as="targetPoint" />
          </mxGeometry>
        </mxCell>
        <mxCell id="Jcw7EJioxbvd80uUM6-t-32" value="" style="html=1;points=[];perimeter=orthogonalPerimeter;rounded=0;shadow=0;comic=0;labelBackgroundColor=none;strokeWidth=1;fontFamily=Verdana;fontSize=12;align=center;" vertex="1" parent="1">
          <mxGeometry x="470" y="550" width="10" height="145" as="geometry" />
        </mxCell>
        <mxCell id="Jcw7EJioxbvd80uUM6-t-65" value="Withdraw()" style="html=1;verticalAlign=bottom;endArrow=block;labelBackgroundColor=none;fontFamily=Verdana;fontSize=12;edgeStyle=elbowEdgeStyle;elbow=vertical;exitX=1;exitY=0.318;exitDx=0;exitDy=0;exitPerimeter=0;" edge="1" parent="1">
          <mxGeometry x="-0.081" relative="1" as="geometry">
            <mxPoint x="665" y="892" as="sourcePoint" />
            <Array as="points" />
            <mxPoint x="479.99999999999955" y="892" as="targetPoint" />
            <mxPoint as="offset" />
          </mxGeometry>
        </mxCell>
        <mxCell id="Jcw7EJioxbvd80uUM6-t-66" value="Withdraw successful." style="html=1;verticalAlign=bottom;endArrow=open;dashed=1;endSize=8;labelBackgroundColor=none;fontFamily=Verdana;fontSize=12;" edge="1" parent="1">
          <mxGeometry relative="1" as="geometry">
            <mxPoint x="665" y="912.44" as="targetPoint" />
            <mxPoint x="480" y="912" as="sourcePoint" />
          </mxGeometry>
        </mxCell>
        <mxCell id="Jcw7EJioxbvd80uUM6-t-67" value="Execute&lt;span style=&quot;background-color: initial;&quot;&gt;()&lt;/span&gt;" style="html=1;verticalAlign=bottom;endArrow=block;labelBackgroundColor=none;fontFamily=Verdana;fontSize=12;edgeStyle=elbowEdgeStyle;elbow=vertical;exitX=1;exitY=0.318;exitDx=0;exitDy=0;exitPerimeter=0;" edge="1" parent="1">
          <mxGeometry relative="1" as="geometry">
            <mxPoint x="1050" y="954" as="sourcePoint" />
            <Array as="points" />
            <mxPoint x="895" y="954" as="targetPoint" />
            <mxPoint as="offset" />
          </mxGeometry>
        </mxCell>
        <mxCell id="Jcw7EJioxbvd80uUM6-t-69" value="Deposit()" style="html=1;verticalAlign=bottom;endArrow=block;labelBackgroundColor=none;fontFamily=Verdana;fontSize=12;edgeStyle=elbowEdgeStyle;elbow=vertical;exitX=1;exitY=0.318;exitDx=0;exitDy=0;exitPerimeter=0;" edge="1" parent="1">
          <mxGeometry x="-0.081" relative="1" as="geometry">
            <mxPoint x="885" y="972" as="sourcePoint" />
            <Array as="points" />
            <mxPoint x="479.99999999999955" y="972" as="targetPoint" />
            <mxPoint as="offset" />
          </mxGeometry>
        </mxCell>
        <mxCell id="Jcw7EJioxbvd80uUM6-t-70" value="Deposit successful." style="html=1;verticalAlign=bottom;endArrow=open;dashed=1;endSize=8;labelBackgroundColor=none;fontFamily=Verdana;fontSize=12;" edge="1" parent="1">
          <mxGeometry relative="1" as="geometry">
            <mxPoint x="885" y="995.44" as="targetPoint" />
            <mxPoint x="480" y="995" as="sourcePoint" />
          </mxGeometry>
        </mxCell>
        <mxCell id="Jcw7EJioxbvd80uUM6-t-71" value="Print()" style="html=1;verticalAlign=bottom;endArrow=block;labelBackgroundColor=none;fontFamily=Verdana;fontSize=12;elbow=vertical;edgeStyle=orthogonalEdgeStyle;curved=1;exitX=1.038;exitY=0.345;exitPerimeter=0;" edge="1" parent="1">
          <mxGeometry x="0.6094" relative="1" as="geometry">
            <mxPoint x="1059.0033333333336" y="1019" as="sourcePoint" />
            <mxPoint x="1059" y="1037" as="targetPoint" />
            <Array as="points">
              <mxPoint x="1114" y="1019" />
              <mxPoint x="1114" y="1037" />
            </Array>
            <mxPoint as="offset" />
          </mxGeometry>
        </mxCell>
        <mxCell id="Jcw7EJioxbvd80uUM6-t-77" value="DoPrint()" style="html=1;verticalAlign=bottom;endArrow=block;labelBackgroundColor=none;fontFamily=Verdana;fontSize=12;elbow=vertical;edgeStyle=orthogonalEdgeStyle;curved=1;exitX=1.038;exitY=0.345;exitPerimeter=0;" edge="1" parent="1">
          <mxGeometry x="-0.0853" y="20" relative="1" as="geometry">
            <mxPoint x="155.0033333333335" y="1094.04" as="sourcePoint" />
            <mxPoint x="155" y="1117.37" as="targetPoint" />
            <Array as="points">
              <mxPoint x="210" y="1094.37" />
              <mxPoint x="210" y="1117.37" />
              <mxPoint x="160" y="1117.37" />
            </Array>
            <mxPoint as="offset" />
          </mxGeometry>
        </mxCell>
        <mxCell id="Jcw7EJioxbvd80uUM6-t-78" value="FindAccount()" style="html=1;verticalAlign=bottom;endArrow=block;labelBackgroundColor=none;fontFamily=Verdana;fontSize=12;elbow=vertical;edgeStyle=orthogonalEdgeStyle;curved=1;exitX=1.038;exitY=0.345;exitPerimeter=0;" edge="1" parent="1">
          <mxGeometry x="-0.0853" y="20" relative="1" as="geometry">
            <mxPoint x="155.0033333333335" y="1128.04" as="sourcePoint" />
            <mxPoint x="155" y="1151.37" as="targetPoint" />
            <Array as="points">
              <mxPoint x="210" y="1128.37" />
              <mxPoint x="210" y="1151.37" />
              <mxPoint x="160" y="1151.37" />
            </Array>
            <mxPoint as="offset" />
          </mxGeometry>
        </mxCell>
        <mxCell id="Jcw7EJioxbvd80uUM6-t-79" value="Deposit()" style="html=1;verticalAlign=bottom;endArrow=block;labelBackgroundColor=none;fontFamily=Verdana;fontSize=12;edgeStyle=elbowEdgeStyle;elbow=vertical;exitX=1;exitY=0.318;exitDx=0;exitDy=0;exitPerimeter=0;" edge="1" parent="1">
          <mxGeometry x="-0.0158" relative="1" as="geometry">
            <mxPoint x="155" y="1170" as="sourcePoint" />
            <Array as="points" />
            <mxPoint x="470" y="1170" as="targetPoint" />
            <mxPoint x="1" y="1" as="offset" />
          </mxGeometry>
        </mxCell>
        <mxCell id="Jcw7EJioxbvd80uUM6-t-81" value="opt==print" style="rounded=1;fontStyle=1;fillColor=#D45EFF;strokeColor=none" vertex="1" parent="1">
          <mxGeometry x="39" y="1092" width="87.5" height="30" as="geometry" />
        </mxCell>
        <mxCell id="Jcw7EJioxbvd80uUM6-t-83" value="opt==newAccount" style="rounded=1;fontStyle=1;fillColor=#D45EFF;strokeColor=none" vertex="1" parent="1">
          <mxGeometry x="-176" y="1220" width="111" height="38" as="geometry" />
        </mxCell>
        <mxCell id="Jcw7EJioxbvd80uUM6-t-84" value="Deposit()" style="html=1;verticalAlign=bottom;endArrow=block;labelBackgroundColor=none;fontFamily=Verdana;fontSize=12;edgeStyle=elbowEdgeStyle;elbow=vertical;exitX=1;exitY=0.318;exitDx=0;exitDy=0;exitPerimeter=0;" edge="1" parent="1">
          <mxGeometry x="-0.0158" relative="1" as="geometry">
            <mxPoint x="-41" y="1240" as="sourcePoint" />
            <Array as="points" />
            <mxPoint x="145" y="1240" as="targetPoint" />
            <mxPoint x="1" y="1" as="offset" />
          </mxGeometry>
        </mxCell>
        <mxCell id="Jcw7EJioxbvd80uUM6-t-85" value="AddAccount()" style="html=1;verticalAlign=bottom;endArrow=block;labelBackgroundColor=none;fontFamily=Verdana;fontSize=12;edgeStyle=elbowEdgeStyle;elbow=vertical;exitX=1;exitY=0.318;exitDx=0;exitDy=0;exitPerimeter=0;" edge="1" parent="1">
          <mxGeometry x="-0.0158" relative="1" as="geometry">
            <mxPoint x="155" y="1260" as="sourcePoint" />
            <Array as="points" />
            <mxPoint x="305" y="1260" as="targetPoint" />
            <mxPoint x="1" y="1" as="offset" />
          </mxGeometry>
        </mxCell>
        <mxCell id="Jcw7EJioxbvd80uUM6-t-87" value="GetAccount()" style="html=1;verticalAlign=bottom;endArrow=block;labelBackgroundColor=none;fontFamily=Verdana;fontSize=12;edgeStyle=elbowEdgeStyle;elbow=vertical;exitX=1;exitY=0.318;exitDx=0;exitDy=0;exitPerimeter=0;" edge="1" parent="1">
          <mxGeometry x="-0.0158" relative="1" as="geometry">
            <mxPoint x="155" y="1280" as="sourcePoint" />
            <Array as="points" />
            <mxPoint x="305" y="1280" as="targetPoint" />
            <mxPoint x="1" y="1" as="offset" />
          </mxGeometry>
        </mxCell>
        <mxCell id="Jcw7EJioxbvd80uUM6-t-89" value="Constructor" style="html=1;verticalAlign=bottom;endArrow=block;labelBackgroundColor=none;fontFamily=Verdana;fontSize=12;edgeStyle=elbowEdgeStyle;elbow=vertical;exitX=1;exitY=0.318;exitDx=0;exitDy=0;exitPerimeter=0;" edge="1" parent="1">
          <mxGeometry x="-0.0158" relative="1" as="geometry">
            <mxPoint x="155" y="1310" as="sourcePoint" />
            <Array as="points" />
            <mxPoint x="470" y="1310" as="targetPoint" />
            <mxPoint x="1" y="1" as="offset" />
          </mxGeometry>
        </mxCell>
        <mxCell id="Jcw7EJioxbvd80uUM6-t-97" value="Text" style="edgeLabel;html=1;align=center;verticalAlign=middle;resizable=0;points=[];" vertex="1" connectable="0" parent="Jcw7EJioxbvd80uUM6-t-89">
          <mxGeometry x="-0.4018" relative="1" as="geometry">
            <mxPoint as="offset" />
          </mxGeometry>
        </mxCell>
        <mxCell id="Jcw7EJioxbvd80uUM6-t-91" value="&lt;font style=&quot;font-size: 9px;&quot;&gt;Account Created successfully.&lt;/font&gt;" style="html=1;verticalAlign=bottom;endArrow=open;dashed=1;endSize=8;labelBackgroundColor=none;fontFamily=Verdana;fontSize=12;" edge="1" parent="1">
          <mxGeometry x="0.0143" relative="1" as="geometry">
            <mxPoint x="154.5" y="1328.44" as="targetPoint" />
            <mxPoint x="305" y="1328" as="sourcePoint" />
            <mxPoint as="offset" />
          </mxGeometry>
        </mxCell>
        <mxCell id="Jcw7EJioxbvd80uUM6-t-92" value="User Chooses Option" style="html=1;verticalAlign=bottom;endArrow=block;labelBackgroundColor=none;fontFamily=Verdana;fontSize=12;edgeStyle=elbowEdgeStyle;elbow=vertical;exitX=1.335;exitY=0.023;exitDx=0;exitDy=0;exitPerimeter=0;" edge="1" parent="1">
          <mxGeometry relative="1" as="geometry">
            <mxPoint x="-40" y="1370.13" as="sourcePoint" />
            <mxPoint x="142" y="1370.13" as="targetPoint" />
          </mxGeometry>
        </mxCell>
        <mxCell id="Jcw7EJioxbvd80uUM6-t-95" value="&lt;font style=&quot;font-size: 10px;&quot;&gt;&lt;font style=&quot;font-size: 10px;&quot;&gt;PrintTransactionHistory&lt;/font&gt;()&lt;/font&gt;" style="html=1;verticalAlign=bottom;endArrow=block;labelBackgroundColor=none;fontFamily=Verdana;fontSize=12;edgeStyle=elbowEdgeStyle;elbow=vertical;exitX=1;exitY=0.318;exitDx=0;exitDy=0;exitPerimeter=0;" edge="1" parent="1">
          <mxGeometry x="-0.0158" relative="1" as="geometry">
            <mxPoint x="155" y="1390" as="sourcePoint" />
            <Array as="points" />
            <mxPoint x="305" y="1390" as="targetPoint" />
            <mxPoint x="1" y="1" as="offset" />
          </mxGeometry>
        </mxCell>
        <mxCell id="Jcw7EJioxbvd80uUM6-t-23" value="" style="edgeStyle=orthogonalEdgeStyle;rounded=0;orthogonalLoop=1;jettySize=auto;html=1;dashed=1;endArrow=none;endFill=0;" edge="1" parent="1">
          <mxGeometry relative="1" as="geometry">
            <mxPoint x="474.78999999999996" y="945" as="sourcePoint" />
            <mxPoint x="474.78999999999996" y="1761" as="targetPoint" />
          </mxGeometry>
        </mxCell>
        <mxCell id="Jcw7EJioxbvd80uUM6-t-88" value="" style="html=1;points=[];perimeter=orthogonalPerimeter;rounded=0;shadow=0;comic=0;labelBackgroundColor=none;strokeWidth=1;fontFamily=Verdana;fontSize=12;align=center;" vertex="1" parent="1">
          <mxGeometry x="470" y="1300" width="10" height="22" as="geometry" />
        </mxCell>
        <mxCell id="Jcw7EJioxbvd80uUM6-t-80" value="" style="html=1;points=[];perimeter=orthogonalPerimeter;rounded=0;shadow=0;comic=0;labelBackgroundColor=none;strokeWidth=1;fontFamily=Verdana;fontSize=12;align=center;" vertex="1" parent="1">
          <mxGeometry x="470" y="1160" width="10" height="22" as="geometry" />
        </mxCell>
        <mxCell id="Jcw7EJioxbvd80uUM6-t-53" value="" style="html=1;points=[];perimeter=orthogonalPerimeter;rounded=0;shadow=0;comic=0;labelBackgroundColor=none;strokeWidth=1;fontFamily=Verdana;fontSize=12;align=center;" vertex="1" parent="1">
          <mxGeometry x="470" y="860" width="10" height="152" as="geometry" />
        </mxCell>
        <mxCell id="7baba1c4bc27f4b0-2" value="Bank" style="shape=umlLifeline;perimeter=lifelinePerimeter;whiteSpace=wrap;html=1;container=1;collapsible=0;recursiveResize=0;outlineConnect=0;rounded=1;shadow=0;comic=0;labelBackgroundColor=none;strokeWidth=1;fontFamily=Verdana;fontSize=12;align=center;" parent="1" vertex="1">
          <mxGeometry x="260" y="80" width="100" height="1760" as="geometry" />
        </mxCell>
        <mxCell id="Jcw7EJioxbvd80uUM6-t-86" value="" style="html=1;points=[];perimeter=orthogonalPerimeter;rounded=0;shadow=0;comic=0;labelBackgroundColor=none;strokeWidth=1;fontFamily=Verdana;fontSize=12;align=center;" vertex="1" parent="7baba1c4bc27f4b0-2">
          <mxGeometry x="45" y="1170" width="10" height="40" as="geometry" />
        </mxCell>
        <mxCell id="Jcw7EJioxbvd80uUM6-t-90" value="" style="html=1;points=[];perimeter=orthogonalPerimeter;rounded=0;shadow=0;comic=0;labelBackgroundColor=none;strokeWidth=1;fontFamily=Verdana;fontSize=12;align=center;" vertex="1" parent="1">
          <mxGeometry x="305" y="1316" width="10" height="20" as="geometry" />
        </mxCell>
        <mxCell id="Jcw7EJioxbvd80uUM6-t-96" value="" style="html=1;points=[];perimeter=orthogonalPerimeter;rounded=0;shadow=0;comic=0;labelBackgroundColor=none;strokeWidth=1;fontFamily=Verdana;fontSize=12;align=center;" vertex="1" parent="1">
          <mxGeometry x="305" y="1376" width="10" height="20" as="geometry" />
        </mxCell>
        <mxCell id="7baba1c4bc27f4b0-8" value="Progrm" style="shape=umlLifeline;perimeter=lifelinePerimeter;whiteSpace=wrap;html=1;container=1;collapsible=0;recursiveResize=0;outlineConnect=0;rounded=1;shadow=0;comic=0;labelBackgroundColor=none;strokeWidth=1;fontFamily=Verdana;fontSize=12;align=center;" parent="1" vertex="1">
          <mxGeometry x="100" y="80" width="100" height="1760" as="geometry" />
        </mxCell>
        <mxCell id="Jcw7EJioxbvd80uUM6-t-13" value="Execute&lt;span style=&quot;background-color: initial;&quot;&gt;()&lt;/span&gt;" style="html=1;verticalAlign=bottom;endArrow=block;labelBackgroundColor=none;fontFamily=Verdana;fontSize=12;edgeStyle=elbowEdgeStyle;elbow=vertical;exitX=1;exitY=0.318;exitDx=0;exitDy=0;exitPerimeter=0;" edge="1" parent="7baba1c4bc27f4b0-8">
          <mxGeometry x="-0.3914" y="1" relative="1" as="geometry">
            <mxPoint x="55" y="284" as="sourcePoint" />
            <Array as="points" />
            <mxPoint x="565" y="284" as="targetPoint" />
            <mxPoint x="1" as="offset" />
          </mxGeometry>
        </mxCell>
        <mxCell id="Jcw7EJioxbvd80uUM6-t-25" value="Withdraw successful." style="html=1;verticalAlign=bottom;endArrow=open;dashed=1;endSize=8;labelBackgroundColor=none;fontFamily=Verdana;fontSize=12;" edge="1" parent="7baba1c4bc27f4b0-8">
          <mxGeometry x="0.0143" relative="1" as="geometry">
            <mxPoint x="54.5" y="260.44" as="targetPoint" />
            <mxPoint x="370" y="260" as="sourcePoint" />
            <mxPoint as="offset" />
          </mxGeometry>
        </mxCell>
        <mxCell id="7baba1c4bc27f4b0-9" value="" style="html=1;points=[];perimeter=orthogonalPerimeter;rounded=0;shadow=0;comic=0;labelBackgroundColor=none;strokeWidth=1;fontFamily=Verdana;fontSize=12;align=center;" parent="7baba1c4bc27f4b0-8" vertex="1">
          <mxGeometry x="45" y="100" width="10" height="1220" as="geometry" />
        </mxCell>
        <mxCell id="7baba1c4bc27f4b0-4" value="Withdraw Transaction" style="shape=umlLifeline;perimeter=lifelinePerimeter;whiteSpace=wrap;html=1;container=1;collapsible=0;recursiveResize=0;outlineConnect=0;rounded=1;shadow=0;comic=0;labelBackgroundColor=none;strokeWidth=1;fontFamily=Verdana;fontSize=12;align=center;" parent="1" vertex="1">
          <mxGeometry x="620" y="80" width="100" height="1760" as="geometry" />
        </mxCell>
        <mxCell id="7baba1c4bc27f4b0-16" value="" style="html=1;points=[];perimeter=orthogonalPerimeter;rounded=0;shadow=0;comic=0;labelBackgroundColor=none;strokeWidth=1;fontFamily=Verdana;fontSize=12;align=center;" parent="7baba1c4bc27f4b0-4" vertex="1">
          <mxGeometry x="45" y="270" width="10" height="90" as="geometry" />
        </mxCell>
        <mxCell id="Jcw7EJioxbvd80uUM6-t-24" value="Withdraw successful." style="html=1;verticalAlign=bottom;endArrow=open;dashed=1;endSize=8;labelBackgroundColor=none;fontFamily=Verdana;fontSize=12;" edge="1" parent="7baba1c4bc27f4b0-4">
          <mxGeometry relative="1" as="geometry">
            <mxPoint x="45" y="325.44" as="targetPoint" />
            <mxPoint x="-140" y="325" as="sourcePoint" />
          </mxGeometry>
        </mxCell>
        <mxCell id="Jcw7EJioxbvd80uUM6-t-54" value="" style="html=1;points=[];perimeter=orthogonalPerimeter;rounded=0;shadow=0;comic=0;labelBackgroundColor=none;strokeWidth=1;fontFamily=Verdana;fontSize=12;align=center;" vertex="1" parent="1">
          <mxGeometry x="665" y="860" width="10" height="85" as="geometry" />
        </mxCell>
        <mxCell id="7baba1c4bc27f4b0-5" value="Deposit Transaction" style="shape=umlLifeline;perimeter=lifelinePerimeter;whiteSpace=wrap;html=1;container=1;collapsible=0;recursiveResize=0;outlineConnect=0;rounded=1;shadow=0;comic=0;labelBackgroundColor=none;strokeWidth=1;fontFamily=Verdana;fontSize=12;align=center;" parent="1" vertex="1">
          <mxGeometry x="840" y="80" width="100" height="1780" as="geometry" />
        </mxCell>
        <mxCell id="Jcw7EJioxbvd80uUM6-t-35" value="" style="html=1;points=[];perimeter=orthogonalPerimeter;rounded=0;shadow=0;comic=0;labelBackgroundColor=none;strokeWidth=1;fontFamily=Verdana;fontSize=12;align=center;" vertex="1" parent="7baba1c4bc27f4b0-5">
          <mxGeometry x="45" y="524" width="10" height="90" as="geometry" />
        </mxCell>
        <mxCell id="Jcw7EJioxbvd80uUM6-t-68" value="" style="html=1;points=[];perimeter=orthogonalPerimeter;rounded=0;shadow=0;comic=0;labelBackgroundColor=none;strokeWidth=1;fontFamily=Verdana;fontSize=12;align=center;" vertex="1" parent="1">
          <mxGeometry x="885" y="940" width="10" height="70" as="geometry" />
        </mxCell>
        <mxCell id="7baba1c4bc27f4b0-6" value="Transfer Transaction" style="shape=umlLifeline;perimeter=lifelinePerimeter;whiteSpace=wrap;html=1;container=1;collapsible=0;recursiveResize=0;outlineConnect=0;rounded=1;shadow=0;comic=0;labelBackgroundColor=none;strokeWidth=1;fontFamily=Verdana;fontSize=12;align=center;" parent="1" vertex="1">
          <mxGeometry x="1005" y="80" width="100" height="1390" as="geometry" />
        </mxCell>
        <mxCell id="Jcw7EJioxbvd80uUM6-t-43" value="" style="html=1;points=[];perimeter=orthogonalPerimeter;rounded=0;shadow=0;comic=0;labelBackgroundColor=none;strokeWidth=1;fontFamily=Verdana;fontSize=12;align=center;" vertex="1" parent="1">
          <mxGeometry x="1050" y="820" width="10" height="220" as="geometry" />
        </mxCell>
        <mxCell id="Jcw7EJioxbvd80uUM6-t-102" value="" style="endArrow=none;dashed=1;html=1;rounded=0;" edge="1" parent="1">
          <mxGeometry width="50" height="50" relative="1" as="geometry">
            <mxPoint x="-46" y="1469" as="sourcePoint" />
            <mxPoint x="-46" y="1399" as="targetPoint" />
          </mxGeometry>
        </mxCell>
      </root>
    </mxGraphModel>
  </diagram>
</mxfile>
